<?xml version="1.0" encoding="UTF-8" standalone="no"?><svg xmlns="http://www.w3.org/2000/svg" xmlns:xlink="http://www.w3.org/1999/xlink" contentScriptType="application/ecmascript" contentStyleType="text/css" height="837px" preserveAspectRatio="none" style="width:990px;height:837px;background:#FFFFFF;" version="1.1" viewBox="0 0 990 837" width="990px" zoomAndPan="magnify"><defs><filter height="300%" id="fn5srumwf3yby" width="300%" x="-1" y="-1"><feGaussianBlur result="blurOut" stdDeviation="2.0"/><feColorMatrix in="blurOut" result="blurOut2" type="matrix" values="0 0 0 0 0 0 0 0 0 0 0 0 0 0 0 0 0 0 .4 0"/><feOffset dx="4.0" dy="4.0" in="blurOut2" result="blurOut3"/><feBlend in="SourceGraphic" in2="blurOut3" mode="normal"/></filter></defs><g><!--MD5=[7f90bb3f94ac59600b035378f62c6620]
class cpu--><rect codeLine="1" fill="#FEFECE" filter="url(#fn5srumwf3yby)" height="117.9609" id="cpu" style="stroke:#A80036;stroke-width:1.5;" width="117" x="501.3593" y="219.5"/><ellipse cx="524.9093" cy="238.4688" fill="#ADD1B2" rx="11" ry="11" style="stroke:#A80036;stroke-width:1.0;"/><path d="M527.253,234.1406 C526.3155,233.7031 525.7218,233.5625 524.8468,233.5625 C522.2218,233.5625 520.2218,235.6406 520.2218,238.3594 L520.2218,239.4844 C520.2218,242.0625 522.3312,243.9531 525.2218,243.9531 C526.4405,243.9531 527.5968,243.6563 528.3468,243.1094 C528.9249,242.7031 529.253,242.25 529.253,241.8594 C529.253,241.4063 528.8624,241.0156 528.3937,241.0156 C528.1749,241.0156 527.9718,241.0938 527.7843,241.2813 C527.3312,241.7656 527.3312,241.7656 527.1437,241.8594 C526.7218,242.125 526.0343,242.25 525.2687,242.25 C523.2218,242.25 521.9249,241.1563 521.9249,239.4531 L521.9249,238.3594 C521.9249,236.5781 523.1749,235.2656 524.9093,235.2656 C525.4874,235.2656 526.0968,235.4219 526.5655,235.6719 C527.0499,235.9531 527.2218,236.1719 527.3155,236.5781 C527.378,236.9844 527.4093,237.1094 527.5499,237.2344 C527.6905,237.375 527.9249,237.4844 528.1437,237.4844 C528.4093,237.4844 528.6749,237.3438 528.8468,237.125 C528.9562,236.9688 528.9874,236.7813 528.9874,236.3594 L528.9874,234.9375 C528.9874,234.5 528.9718,234.375 528.878,234.2188 C528.7218,233.9531 528.4405,233.8125 528.1437,233.8125 C527.8468,233.8125 527.6437,233.9063 527.4249,234.2188 L527.253,234.1406 Z " fill="#000000"/><text fill="#000000" font-family="sans-serif" font-size="12" font-style="italic" lengthAdjust="spacing" textLength="70" x="538.8093" y="235.6387">«Cpu6510»</text><text fill="#000000" font-family="sans-serif" font-size="12" lengthAdjust="spacing" textLength="22" x="562.8093" y="249.6074">cpu</text><line style="stroke:#A80036;stroke-width:1.5;" x1="502.3593" x2="617.3593" y1="257.4375" y2="257.4375"/><text fill="#000000" font-family="sans-serif" font-size="11" lengthAdjust="spacing" textLength="105" x="507.3593" y="271.6479">Addressable mem</text><text fill="#000000" font-family="sans-serif" font-size="11" lengthAdjust="spacing" textLength="73" x="507.3593" y="284.4526">IoPort io_port</text><text fill="#000000" font-family="sans-serif" font-size="11" lengthAdjust="spacing" textLength="61" x="507.3593" y="297.2573">Pin ba_line</text><text fill="#000000" font-family="sans-serif" font-size="11" lengthAdjust="spacing" textLength="83" x="507.3593" y="310.062">IrqLine irq_line</text><text fill="#000000" font-family="sans-serif" font-size="11" lengthAdjust="spacing" textLength="90" x="507.3593" y="322.8667">IrqLine nmi_line</text><line style="stroke:#A80036;stroke-width:1.5;" x1="502.3593" x2="617.3593" y1="329.4609" y2="329.4609"/><!--MD5=[44c796ba5c1c6389a462c6e0f4af476c]
class cia_1--><rect codeLine="9" fill="#FEFECE" filter="url(#fn5srumwf3yby)" height="143.5703" id="cia_1" style="stroke:#A80036;stroke-width:1.5;" width="140" x="691.8593" y="407"/><ellipse cx="742.6093" cy="425.9688" fill="#ADD1B2" rx="11" ry="11" style="stroke:#A80036;stroke-width:1.0;"/><path d="M744.953,421.6406 C744.0155,421.2031 743.4218,421.0625 742.5468,421.0625 C739.9218,421.0625 737.9218,423.1406 737.9218,425.8594 L737.9218,426.9844 C737.9218,429.5625 740.0312,431.4531 742.9218,431.4531 C744.1405,431.4531 745.2968,431.1563 746.0468,430.6094 C746.6249,430.2031 746.953,429.75 746.953,429.3594 C746.953,428.9063 746.5624,428.5156 746.0937,428.5156 C745.8749,428.5156 745.6718,428.5938 745.4843,428.7813 C745.0312,429.2656 745.0312,429.2656 744.8437,429.3594 C744.4218,429.625 743.7343,429.75 742.9687,429.75 C740.9218,429.75 739.6249,428.6563 739.6249,426.9531 L739.6249,425.8594 C739.6249,424.0781 740.8749,422.7656 742.6093,422.7656 C743.1874,422.7656 743.7968,422.9219 744.2655,423.1719 C744.7499,423.4531 744.9218,423.6719 745.0155,424.0781 C745.078,424.4844 745.1093,424.6094 745.2499,424.7344 C745.3905,424.875 745.6249,424.9844 745.8437,424.9844 C746.1093,424.9844 746.3749,424.8438 746.5468,424.625 C746.6562,424.4688 746.6874,424.2813 746.6874,423.8594 L746.6874,422.4375 C746.6874,422 746.6718,421.875 746.578,421.7188 C746.4218,421.4531 746.1405,421.3125 745.8437,421.3125 C745.5468,421.3125 745.3437,421.4063 745.1249,421.7188 L744.953,421.6406 Z " fill="#000000"/><text fill="#000000" font-family="sans-serif" font-size="12" font-style="italic" lengthAdjust="spacing" textLength="32" x="762.1093" y="423.1387">«Cia»</text><text fill="#000000" font-family="sans-serif" font-size="12" lengthAdjust="spacing" textLength="30" x="763.1093" y="437.1074">cia_1</text><line style="stroke:#A80036;stroke-width:1.5;" x1="692.8593" x2="830.8593" y1="444.9375" y2="444.9375"/><text fill="#000000" font-family="sans-serif" font-size="11" lengthAdjust="spacing" textLength="73" x="697.8593" y="459.1479">u8 joystick_1</text><text fill="#000000" font-family="sans-serif" font-size="11" lengthAdjust="spacing" textLength="73" x="697.8593" y="471.9526">u8 joystick_2</text><text fill="#000000" font-family="sans-serif" font-size="11" lengthAdjust="spacing" textLength="128" x="697.8593" y="484.7573">[u8; 16] keyboard_mtx</text><text fill="#000000" font-family="sans-serif" font-size="11" lengthAdjust="spacing" textLength="70" x="697.8593" y="497.562">IoPort port_a</text><text fill="#000000" font-family="sans-serif" font-size="11" lengthAdjust="spacing" textLength="70" x="697.8593" y="510.3667">IoPort port_b</text><text fill="#000000" font-family="sans-serif" font-size="11" lengthAdjust="spacing" textLength="64" x="697.8593" y="523.1714">Pin flag_pin</text><text fill="#000000" font-family="sans-serif" font-size="11" lengthAdjust="spacing" textLength="83" x="697.8593" y="535.9761">IrqLine irq_line</text><line style="stroke:#A80036;stroke-width:1.5;" x1="692.8593" x2="830.8593" y1="542.5703" y2="542.5703"/><!--MD5=[70f48ba47eb1b9d2866e4a703dea5595]
class cia_2--><rect codeLine="21" fill="#FEFECE" filter="url(#fn5srumwf3yby)" height="105.1563" id="cia_2" style="stroke:#A80036;stroke-width:1.5;" width="102" x="325.8593" y="425.5"/><ellipse cx="358.4093" cy="444.4688" fill="#ADD1B2" rx="11" ry="11" style="stroke:#A80036;stroke-width:1.0;"/><path d="M360.753,440.1406 C359.8155,439.7031 359.2218,439.5625 358.3468,439.5625 C355.7218,439.5625 353.7218,441.6406 353.7218,444.3594 L353.7218,445.4844 C353.7218,448.0625 355.8312,449.9531 358.7218,449.9531 C359.9405,449.9531 361.0968,449.6563 361.8468,449.1094 C362.4249,448.7031 362.753,448.25 362.753,447.8594 C362.753,447.4063 362.3624,447.0156 361.8937,447.0156 C361.6749,447.0156 361.4718,447.0938 361.2843,447.2813 C360.8312,447.7656 360.8312,447.7656 360.6437,447.8594 C360.2218,448.125 359.5343,448.25 358.7687,448.25 C356.7218,448.25 355.4249,447.1563 355.4249,445.4531 L355.4249,444.3594 C355.4249,442.5781 356.6749,441.2656 358.4093,441.2656 C358.9874,441.2656 359.5968,441.4219 360.0655,441.6719 C360.5499,441.9531 360.7218,442.1719 360.8155,442.5781 C360.878,442.9844 360.9093,443.1094 361.0499,443.2344 C361.1905,443.375 361.4249,443.4844 361.6437,443.4844 C361.9093,443.4844 362.1749,443.3438 362.3468,443.125 C362.4562,442.9688 362.4874,442.7813 362.4874,442.3594 L362.4874,440.9375 C362.4874,440.5 362.4718,440.375 362.378,440.2188 C362.2218,439.9531 361.9405,439.8125 361.6437,439.8125 C361.3468,439.8125 361.1437,439.9063 360.9249,440.2188 L360.753,440.1406 Z " fill="#000000"/><text fill="#000000" font-family="sans-serif" font-size="12" font-style="italic" lengthAdjust="spacing" textLength="32" x="375.8093" y="441.6387">«Cia»</text><text fill="#000000" font-family="sans-serif" font-size="12" lengthAdjust="spacing" textLength="31" x="376.3093" y="455.6074">cia_2</text><line style="stroke:#A80036;stroke-width:1.5;" x1="326.8593" x2="426.8593" y1="463.4375" y2="463.4375"/><text fill="#000000" font-family="sans-serif" font-size="11" lengthAdjust="spacing" textLength="70" x="331.8593" y="477.6479">IoPort port_a</text><text fill="#000000" font-family="sans-serif" font-size="11" lengthAdjust="spacing" textLength="70" x="331.8593" y="490.4526">IoPort port_b</text><text fill="#000000" font-family="sans-serif" font-size="11" lengthAdjust="spacing" textLength="64" x="331.8593" y="503.2573">Pin flag_pin</text><text fill="#000000" font-family="sans-serif" font-size="11" lengthAdjust="spacing" textLength="90" x="331.8593" y="516.062">IrqLine nmi_line</text><line style="stroke:#A80036;stroke-width:1.5;" x1="326.8593" x2="426.8593" y1="522.6563" y2="522.6563"/><!--MD5=[6df38ea76716547cf77b869e7b64e525]
class sid--><rect codeLine="30" fill="#FEFECE" filter="url(#fn5srumwf3yby)" height="92.3516" id="sid" style="stroke:#A80036;stroke-width:1.5;" width="164" x="47.8589" y="431.5"/><ellipse cx="111.1089" cy="450.4688" fill="#ADD1B2" rx="11" ry="11" style="stroke:#A80036;stroke-width:1.0;"/><path d="M113.4526,446.1406 C112.5151,445.7031 111.9214,445.5625 111.0464,445.5625 C108.4214,445.5625 106.4214,447.6406 106.4214,450.3594 L106.4214,451.4844 C106.4214,454.0625 108.5308,455.9531 111.4214,455.9531 C112.6401,455.9531 113.7964,455.6563 114.5464,455.1094 C115.1245,454.7031 115.4526,454.25 115.4526,453.8594 C115.4526,453.4063 115.062,453.0156 114.5933,453.0156 C114.3745,453.0156 114.1714,453.0938 113.9839,453.2813 C113.5308,453.7656 113.5308,453.7656 113.3433,453.8594 C112.9214,454.125 112.2339,454.25 111.4683,454.25 C109.4214,454.25 108.1245,453.1563 108.1245,451.4531 L108.1245,450.3594 C108.1245,448.5781 109.3745,447.2656 111.1089,447.2656 C111.687,447.2656 112.2964,447.4219 112.7651,447.6719 C113.2495,447.9531 113.4214,448.1719 113.5151,448.5781 C113.5776,448.9844 113.6089,449.1094 113.7495,449.2344 C113.8901,449.375 114.1245,449.4844 114.3433,449.4844 C114.6089,449.4844 114.8745,449.3438 115.0464,449.125 C115.1558,448.9688 115.187,448.7813 115.187,448.3594 L115.187,446.9375 C115.187,446.5 115.1714,446.375 115.0776,446.2188 C114.9214,445.9531 114.6401,445.8125 114.3433,445.8125 C114.0464,445.8125 113.8433,445.9063 113.6245,446.2188 L113.4526,446.1406 Z " fill="#000000"/><text fill="#000000" font-family="sans-serif" font-size="12" font-style="italic" lengthAdjust="spacing" textLength="33" x="129.6089" y="447.6387">«Sid»</text><text fill="#000000" font-family="sans-serif" font-size="12" lengthAdjust="spacing" textLength="18" x="137.1089" y="461.6074">sid</text><line style="stroke:#A80036;stroke-width:1.5;" x1="48.8589" x2="210.8589" y1="469.4375" y2="469.4375"/><text fill="#000000" font-family="sans-serif" font-size="11" lengthAdjust="spacing" textLength="121" x="53.8589" y="483.6479">SidModel chip_model</text><text fill="#000000" font-family="sans-serif" font-size="11" lengthAdjust="spacing" textLength="110" x="53.8589" y="496.4526">Clock system_clock</text><text fill="#000000" font-family="sans-serif" font-size="11" lengthAdjust="spacing" textLength="152" x="53.8589" y="509.2573">SoundOutput sound_buffer</text><line style="stroke:#A80036;stroke-width:1.5;" x1="48.8589" x2="210.8589" y1="515.8516" y2="515.8516"/><!--MD5=[5486886f3ca8c8663f74291d639daa05]
class vic--><rect codeLine="36" fill="#FEFECE" filter="url(#fn5srumwf3yby)" height="143.5703" id="vic" style="stroke:#A80036;stroke-width:1.5;" width="161" x="479.3593" y="408"/><ellipse cx="541.6093" cy="426.9688" fill="#ADD1B2" rx="11" ry="11" style="stroke:#A80036;stroke-width:1.0;"/><path d="M543.953,422.6406 C543.0155,422.2031 542.4218,422.0625 541.5468,422.0625 C538.9218,422.0625 536.9218,424.1406 536.9218,426.8594 L536.9218,427.9844 C536.9218,430.5625 539.0312,432.4531 541.9218,432.4531 C543.1405,432.4531 544.2968,432.1563 545.0468,431.6094 C545.6249,431.2031 545.953,430.75 545.953,430.3594 C545.953,429.9063 545.5624,429.5156 545.0937,429.5156 C544.8749,429.5156 544.6718,429.5938 544.4843,429.7813 C544.0312,430.2656 544.0312,430.2656 543.8437,430.3594 C543.4218,430.625 542.7343,430.75 541.9687,430.75 C539.9218,430.75 538.6249,429.6563 538.6249,427.9531 L538.6249,426.8594 C538.6249,425.0781 539.8749,423.7656 541.6093,423.7656 C542.1874,423.7656 542.7968,423.9219 543.2655,424.1719 C543.7499,424.4531 543.9218,424.6719 544.0155,425.0781 C544.078,425.4844 544.1093,425.6094 544.2499,425.7344 C544.3905,425.875 544.6249,425.9844 544.8437,425.9844 C545.1093,425.9844 545.3749,425.8438 545.5468,425.625 C545.6562,425.4688 545.6874,425.2813 545.6874,424.8594 L545.6874,423.4375 C545.6874,423 545.6718,422.875 545.578,422.7188 C545.4218,422.4531 545.1405,422.3125 544.8437,422.3125 C544.5468,422.3125 544.3437,422.4063 544.1249,422.7188 L543.953,422.6406 Z " fill="#000000"/><text fill="#000000" font-family="sans-serif" font-size="12" font-style="italic" lengthAdjust="spacing" textLength="32" x="560.1093" y="424.1387">«Vic»</text><text fill="#000000" font-family="sans-serif" font-size="12" lengthAdjust="spacing" textLength="17" x="567.6093" y="438.1074">vic</text><line style="stroke:#A80036;stroke-width:1.5;" x1="480.3593" x2="639.3593" y1="445.9375" y2="445.9375"/><text fill="#000000" font-family="sans-serif" font-size="11" lengthAdjust="spacing" textLength="120" x="485.3593" y="460.1479">VicModel chip_model</text><text fill="#000000" font-family="sans-serif" font-size="11" lengthAdjust="spacing" textLength="84" x="485.3593" y="472.9526">Ram color_ram</text><text fill="#000000" font-family="sans-serif" font-size="11" lengthAdjust="spacing" textLength="149" x="485.3593" y="485.7573">VideoOutput frame_buffer</text><text fill="#000000" font-family="sans-serif" font-size="11" lengthAdjust="spacing" textLength="88" x="485.3593" y="498.562">bool vsync_flag</text><text fill="#000000" font-family="sans-serif" font-size="11" lengthAdjust="spacing" textLength="61" x="485.3593" y="511.3667">Pin ba_line</text><text fill="#000000" font-family="sans-serif" font-size="11" lengthAdjust="spacing" textLength="83" x="485.3593" y="524.1714">IrqLine irq_line</text><text fill="#000000" font-family="sans-serif" font-size="11" lengthAdjust="spacing" textLength="137" x="485.3593" y="536.9761">VicMemory vic_memory</text><line style="stroke:#A80036;stroke-width:1.5;" x1="480.3593" x2="639.3593" y1="543.5703" y2="543.5703"/><!--MD5=[0ba861fccb107ddd428cba456cb9a1e1]
class vic_memory--><rect codeLine="49" fill="#FEFECE" filter="url(#fn5srumwf3yby)" height="92.3516" id="vic_memory" style="stroke:#A80036;stroke-width:1.5;" width="138" x="524.8593" y="616"/><ellipse cx="553.3593" cy="634.9688" fill="#ADD1B2" rx="11" ry="11" style="stroke:#A80036;stroke-width:1.0;"/><path d="M555.703,630.6406 C554.7655,630.2031 554.1718,630.0625 553.2968,630.0625 C550.6718,630.0625 548.6718,632.1406 548.6718,634.8594 L548.6718,635.9844 C548.6718,638.5625 550.7812,640.4531 553.6718,640.4531 C554.8905,640.4531 556.0468,640.1563 556.7968,639.6094 C557.3749,639.2031 557.703,638.75 557.703,638.3594 C557.703,637.9063 557.3124,637.5156 556.8437,637.5156 C556.6249,637.5156 556.4218,637.5938 556.2343,637.7813 C555.7812,638.2656 555.7812,638.2656 555.5937,638.3594 C555.1718,638.625 554.4843,638.75 553.7187,638.75 C551.6718,638.75 550.3749,637.6563 550.3749,635.9531 L550.3749,634.8594 C550.3749,633.0781 551.6249,631.7656 553.3593,631.7656 C553.9374,631.7656 554.5468,631.9219 555.0155,632.1719 C555.4999,632.4531 555.6718,632.6719 555.7655,633.0781 C555.828,633.4844 555.8593,633.6094 555.9999,633.7344 C556.1405,633.875 556.3749,633.9844 556.5937,633.9844 C556.8593,633.9844 557.1249,633.8438 557.2968,633.625 C557.4062,633.4688 557.4374,633.2813 557.4374,632.8594 L557.4374,631.4375 C557.4374,631 557.4218,630.875 557.328,630.7188 C557.1718,630.4531 556.8905,630.3125 556.5937,630.3125 C556.2968,630.3125 556.0937,630.4063 555.8749,630.7188 L555.703,630.6406 Z " fill="#000000"/><text fill="#000000" font-family="sans-serif" font-size="12" font-style="italic" lengthAdjust="spacing" textLength="80" x="568.3593" y="632.1387">«VicMemory»</text><text fill="#000000" font-family="sans-serif" font-size="12" lengthAdjust="spacing" textLength="73" x="571.8593" y="646.1074">vic_memory</text><line style="stroke:#A80036;stroke-width:1.5;" x1="525.8593" x2="661.8593" y1="653.9375" y2="653.9375"/><text fill="#000000" font-family="sans-serif" font-size="11" lengthAdjust="spacing" textLength="51" x="530.8593" y="668.1479">Ram ram</text><text fill="#000000" font-family="sans-serif" font-size="11" lengthAdjust="spacing" textLength="99" x="530.8593" y="680.9526">Rom rom_charset</text><text fill="#000000" font-family="sans-serif" font-size="11" lengthAdjust="spacing" textLength="126" x="530.8593" y="693.7573">u16 vic_base_address</text><line style="stroke:#A80036;stroke-width:1.5;" x1="525.8593" x2="661.8593" y1="700.3516" y2="700.3516"/><!--MD5=[d7d1b0567e9ed7a7e840dc3579adaf45]
class memory--><rect codeLine="57" fill="#FEFECE" filter="url(#fn5srumwf3yby)" height="143.5703" id="memory" style="stroke:#A80036;stroke-width:1.5;" width="148" x="301.8593" y="7"/><ellipse cx="342.9593" cy="25.9688" fill="#ADD1B2" rx="11" ry="11" style="stroke:#A80036;stroke-width:1.0;"/><path d="M345.303,21.6406 C344.3655,21.2031 343.7718,21.0625 342.8968,21.0625 C340.2718,21.0625 338.2718,23.1406 338.2718,25.8594 L338.2718,26.9844 C338.2718,29.5625 340.3812,31.4531 343.2718,31.4531 C344.4905,31.4531 345.6468,31.1563 346.3968,30.6094 C346.9749,30.2031 347.303,29.75 347.303,29.3594 C347.303,28.9063 346.9124,28.5156 346.4437,28.5156 C346.2249,28.5156 346.0218,28.5938 345.8343,28.7813 C345.3812,29.2656 345.3812,29.2656 345.1937,29.3594 C344.7718,29.625 344.0843,29.75 343.3187,29.75 C341.2718,29.75 339.9749,28.6563 339.9749,26.9531 L339.9749,25.8594 C339.9749,24.0781 341.2249,22.7656 342.9593,22.7656 C343.5374,22.7656 344.1468,22.9219 344.6155,23.1719 C345.0999,23.4531 345.2718,23.6719 345.3655,24.0781 C345.428,24.4844 345.4593,24.6094 345.5999,24.7344 C345.7405,24.875 345.9749,24.9844 346.1937,24.9844 C346.4593,24.9844 346.7249,24.8438 346.8968,24.625 C347.0062,24.4688 347.0374,24.2813 347.0374,23.8594 L347.0374,22.4375 C347.0374,22 347.0218,21.875 346.928,21.7188 C346.7718,21.4531 346.4905,21.3125 346.1937,21.3125 C345.8968,21.3125 345.6937,21.4063 345.4749,21.7188 L345.303,21.6406 Z " fill="#000000"/><text fill="#000000" font-family="sans-serif" font-size="12" font-style="italic" lengthAdjust="spacing" textLength="62" x="360.7593" y="23.1387">«Memory»</text><text fill="#000000" font-family="sans-serif" font-size="12" lengthAdjust="spacing" textLength="50" x="366.7593" y="37.1074">memory</text><line style="stroke:#A80036;stroke-width:1.5;" x1="302.8593" x2="448.8593" y1="44.9375" y2="44.9375"/><text fill="#000000" font-family="sans-serif" font-size="11" lengthAdjust="spacing" textLength="60" x="307.8593" y="59.1479">Mmu mmu</text><text fill="#000000" font-family="sans-serif" font-size="11" lengthAdjust="spacing" textLength="136" x="307.8593" y="71.9526">AddresbFaded exp_port</text><text fill="#000000" font-family="sans-serif" font-size="11" lengthAdjust="spacing" textLength="51" x="307.8593" y="84.7573">Ram ram</text><text fill="#000000" font-family="sans-serif" font-size="11" lengthAdjust="spacing" textLength="86" x="307.8593" y="97.562">Rom rom_basic</text><text fill="#000000" font-family="sans-serif" font-size="11" lengthAdjust="spacing" textLength="99" x="307.8593" y="110.3667">Rom rom_charset</text><text fill="#000000" font-family="sans-serif" font-size="11" lengthAdjust="spacing" textLength="92" x="307.8593" y="123.1714">Rom rom_kernal</text><text fill="#000000" font-family="sans-serif" font-size="11" lengthAdjust="spacing" textLength="66" x="307.8593" y="135.9761">Mmio mmio</text><line style="stroke:#A80036;stroke-width:1.5;" x1="302.8593" x2="448.8593" y1="142.5703" y2="142.5703"/><!--MD5=[20948959334b74d2b41cb3368e9a156b]
class ram--><rect codeLine="89" fill="#FEFECE" filter="url(#fn5srumwf3yby)" height="53.9375" id="ram" style="stroke:#A80036;stroke-width:1.5;" width="69" x="744.3593" y="770"/><ellipse cx="759.3593" cy="788.9688" fill="#ADD1B2" rx="11" ry="11" style="stroke:#A80036;stroke-width:1.0;"/><path d="M761.703,784.6406 C760.7655,784.2031 760.1718,784.0625 759.2968,784.0625 C756.6718,784.0625 754.6718,786.1406 754.6718,788.8594 L754.6718,789.9844 C754.6718,792.5625 756.7812,794.4531 759.6718,794.4531 C760.8905,794.4531 762.0468,794.1563 762.7968,793.6094 C763.3749,793.2031 763.703,792.75 763.703,792.3594 C763.703,791.9063 763.3124,791.5156 762.8437,791.5156 C762.6249,791.5156 762.4218,791.5938 762.2343,791.7813 C761.7812,792.2656 761.7812,792.2656 761.5937,792.3594 C761.1718,792.625 760.4843,792.75 759.7187,792.75 C757.6718,792.75 756.3749,791.6563 756.3749,789.9531 L756.3749,788.8594 C756.3749,787.0781 757.6249,785.7656 759.3593,785.7656 C759.9374,785.7656 760.5468,785.9219 761.0155,786.1719 C761.4999,786.4531 761.6718,786.6719 761.7655,787.0781 C761.828,787.4844 761.8593,787.6094 761.9999,787.7344 C762.1405,787.875 762.3749,787.9844 762.5937,787.9844 C762.8593,787.9844 763.1249,787.8438 763.2968,787.625 C763.4062,787.4688 763.4374,787.2813 763.4374,786.8594 L763.4374,785.4375 C763.4374,785 763.4218,784.875 763.328,784.7188 C763.1718,784.4531 762.8905,784.3125 762.5937,784.3125 C762.2968,784.3125 762.0937,784.4063 761.8749,784.7188 L761.703,784.6406 Z " fill="#000000"/><text fill="#000000" font-family="sans-serif" font-size="12" font-style="italic" lengthAdjust="spacing" textLength="41" x="771.3593" y="786.1387">«Ram»</text><text fill="#000000" font-family="sans-serif" font-size="12" lengthAdjust="spacing" textLength="23" x="780.3593" y="800.1074">ram</text><line style="stroke:#A80036;stroke-width:1.5;" x1="745.3593" x2="812.3593" y1="807.9375" y2="807.9375"/><line style="stroke:#A80036;stroke-width:1.5;" x1="745.3593" x2="812.3593" y1="815.9375" y2="815.9375"/><!--MD5=[9bf694d0c0c4849118a550fa377719d2]
class mmio--><rect codeLine="69" fill="#FEFECE" filter="url(#fn5srumwf3yby)" height="130.7656" id="mmio" style="stroke:#A80036;stroke-width:1.5;" width="148" x="301.8593" y="214"/><ellipse cx="350.6093" cy="232.9688" fill="#ADD1B2" rx="11" ry="11" style="stroke:#A80036;stroke-width:1.0;"/><path d="M352.953,228.6406 C352.0155,228.2031 351.4218,228.0625 350.5468,228.0625 C347.9218,228.0625 345.9218,230.1406 345.9218,232.8594 L345.9218,233.9844 C345.9218,236.5625 348.0312,238.4531 350.9218,238.4531 C352.1405,238.4531 353.2968,238.1563 354.0468,237.6094 C354.6249,237.2031 354.953,236.75 354.953,236.3594 C354.953,235.9063 354.5624,235.5156 354.0937,235.5156 C353.8749,235.5156 353.6718,235.5938 353.4843,235.7813 C353.0312,236.2656 353.0312,236.2656 352.8437,236.3594 C352.4218,236.625 351.7343,236.75 350.9687,236.75 C348.9218,236.75 347.6249,235.6563 347.6249,233.9531 L347.6249,232.8594 C347.6249,231.0781 348.8749,229.7656 350.6093,229.7656 C351.1874,229.7656 351.7968,229.9219 352.2655,230.1719 C352.7499,230.4531 352.9218,230.6719 353.0155,231.0781 C353.078,231.4844 353.1093,231.6094 353.2499,231.7344 C353.3905,231.875 353.6249,231.9844 353.8437,231.9844 C354.1093,231.9844 354.3749,231.8438 354.5468,231.625 C354.6562,231.4688 354.6874,231.2813 354.6874,230.8594 L354.6874,229.4375 C354.6874,229 354.6718,228.875 354.578,228.7188 C354.4218,228.4531 354.1405,228.3125 353.8437,228.3125 C353.5468,228.3125 353.3437,228.4063 353.1249,228.7188 L352.953,228.6406 Z " fill="#000000"/><text fill="#000000" font-family="sans-serif" font-size="12" font-style="italic" lengthAdjust="spacing" textLength="46" x="369.1093" y="230.1387">«Mmio»</text><text fill="#000000" font-family="sans-serif" font-size="12" lengthAdjust="spacing" textLength="33" x="375.6093" y="244.1074">mmio</text><line style="stroke:#A80036;stroke-width:1.5;" x1="302.8593" x2="448.8593" y1="251.9375" y2="251.9375"/><text fill="#000000" font-family="sans-serif" font-size="11" lengthAdjust="spacing" textLength="58" x="307.8593" y="266.1479">Chip cia_1</text><text fill="#000000" font-family="sans-serif" font-size="11" lengthAdjust="spacing" textLength="58" x="307.8593" y="278.9526">Chip cia_2</text><text fill="#000000" font-family="sans-serif" font-size="11" lengthAdjust="spacing" textLength="84" x="307.8593" y="291.7573">Ram color_ram</text><text fill="#000000" font-family="sans-serif" font-size="11" lengthAdjust="spacing" textLength="136" x="307.8593" y="304.562">AddresbFaded exp_port</text><text fill="#000000" font-family="sans-serif" font-size="11" lengthAdjust="spacing" textLength="45" x="307.8593" y="317.3667">Chip sid</text><text fill="#000000" font-family="sans-serif" font-size="11" lengthAdjust="spacing" textLength="45" x="307.8593" y="330.1714">Chip vic</text><line style="stroke:#A80036;stroke-width:1.5;" x1="302.8593" x2="448.8593" y1="336.7656" y2="336.7656"/><!--MD5=[b22852c49783b781fcfa7be9d9745ed5]
class color_ram--><rect codeLine="84" fill="#FEFECE" filter="url(#fn5srumwf3yby)" height="53.9375" id="color_ram" style="stroke:#A80036;stroke-width:1.5;" width="92" x="320.8593" y="634"/><ellipse cx="335.8593" cy="652.9688" fill="#ADD1B2" rx="11" ry="11" style="stroke:#A80036;stroke-width:1.0;"/><path d="M338.203,648.6406 C337.2655,648.2031 336.6718,648.0625 335.7968,648.0625 C333.1718,648.0625 331.1718,650.1406 331.1718,652.8594 L331.1718,653.9844 C331.1718,656.5625 333.2812,658.4531 336.1718,658.4531 C337.3905,658.4531 338.5468,658.1563 339.2968,657.6094 C339.8749,657.2031 340.203,656.75 340.203,656.3594 C340.203,655.9063 339.8124,655.5156 339.3437,655.5156 C339.1249,655.5156 338.9218,655.5938 338.7343,655.7813 C338.2812,656.2656 338.2812,656.2656 338.0937,656.3594 C337.6718,656.625 336.9843,656.75 336.2187,656.75 C334.1718,656.75 332.8749,655.6563 332.8749,653.9531 L332.8749,652.8594 C332.8749,651.0781 334.1249,649.7656 335.8593,649.7656 C336.4374,649.7656 337.0468,649.9219 337.5155,650.1719 C337.9999,650.4531 338.1718,650.6719 338.2655,651.0781 C338.328,651.4844 338.3593,651.6094 338.4999,651.7344 C338.6405,651.875 338.8749,651.9844 339.0937,651.9844 C339.3593,651.9844 339.6249,651.8438 339.7968,651.625 C339.9062,651.4688 339.9374,651.2813 339.9374,650.8594 L339.9374,649.4375 C339.9374,649 339.9218,648.875 339.828,648.7188 C339.6718,648.4531 339.3905,648.3125 339.0937,648.3125 C338.7968,648.3125 338.5937,648.4063 338.3749,648.7188 L338.203,648.6406 Z " fill="#000000"/><text fill="#000000" font-family="sans-serif" font-size="12" font-style="italic" lengthAdjust="spacing" textLength="41" x="359.3593" y="650.1387">«Ram»</text><text fill="#000000" font-family="sans-serif" font-size="12" lengthAdjust="spacing" textLength="60" x="349.8593" y="664.1074">color_ram</text><line style="stroke:#A80036;stroke-width:1.5;" x1="321.8593" x2="411.8593" y1="671.9375" y2="671.9375"/><line style="stroke:#A80036;stroke-width:1.5;" x1="321.8593" x2="411.8593" y1="679.9375" y2="679.9375"/><!--MD5=[4795a374bdb97e8f335f7d74b4240a6f]
class rom_charset--><rect codeLine="93" fill="#FEFECE" filter="url(#fn5srumwf3yby)" height="53.9375" id="rom_charset" style="stroke:#A80036;stroke-width:1.5;" width="107" x="59.3589" y="634"/><ellipse cx="74.3589" cy="652.9688" fill="#ADD1B2" rx="11" ry="11" style="stroke:#A80036;stroke-width:1.0;"/><path d="M76.7026,648.6406 C75.7651,648.2031 75.1714,648.0625 74.2964,648.0625 C71.6714,648.0625 69.6714,650.1406 69.6714,652.8594 L69.6714,653.9844 C69.6714,656.5625 71.7808,658.4531 74.6714,658.4531 C75.8901,658.4531 77.0464,658.1563 77.7964,657.6094 C78.3745,657.2031 78.7026,656.75 78.7026,656.3594 C78.7026,655.9063 78.312,655.5156 77.8433,655.5156 C77.6245,655.5156 77.4214,655.5938 77.2339,655.7813 C76.7808,656.2656 76.7808,656.2656 76.5933,656.3594 C76.1714,656.625 75.4839,656.75 74.7183,656.75 C72.6714,656.75 71.3745,655.6563 71.3745,653.9531 L71.3745,652.8594 C71.3745,651.0781 72.6245,649.7656 74.3589,649.7656 C74.937,649.7656 75.5464,649.9219 76.0151,650.1719 C76.4995,650.4531 76.6714,650.6719 76.7651,651.0781 C76.8276,651.4844 76.8589,651.6094 76.9995,651.7344 C77.1401,651.875 77.3745,651.9844 77.5933,651.9844 C77.8589,651.9844 78.1245,651.8438 78.2964,651.625 C78.4058,651.4688 78.437,651.2813 78.437,650.8594 L78.437,649.4375 C78.437,649 78.4214,648.875 78.3276,648.7188 C78.1714,648.4531 77.8901,648.3125 77.5933,648.3125 C77.2964,648.3125 77.0933,648.4063 76.8745,648.7188 L76.7026,648.6406 Z " fill="#000000"/><text fill="#000000" font-family="sans-serif" font-size="12" font-style="italic" lengthAdjust="spacing" textLength="41" x="105.3589" y="650.1387">«Rom»</text><text fill="#000000" font-family="sans-serif" font-size="12" lengthAdjust="spacing" textLength="75" x="88.3589" y="664.1074">rom_charset</text><line style="stroke:#A80036;stroke-width:1.5;" x1="60.3589" x2="165.3589" y1="671.9375" y2="671.9375"/><line style="stroke:#A80036;stroke-width:1.5;" x1="60.3589" x2="165.3589" y1="679.9375" y2="679.9375"/><!--MD5=[f3fd6c944f555aad6526215fd3283d8f]
class datassette--><rect codeLine="98" fill="#FEFECE" filter="url(#fn5srumwf3yby)" height="79.5469" id="datassette" style="stroke:#A80036;stroke-width:1.5;" width="111" x="748.3593" y="622.5"/><ellipse cx="767.4093" cy="641.4688" fill="#ADD1B2" rx="11" ry="11" style="stroke:#A80036;stroke-width:1.0;"/><path d="M769.753,637.1406 C768.8155,636.7031 768.2218,636.5625 767.3468,636.5625 C764.7218,636.5625 762.7218,638.6406 762.7218,641.3594 L762.7218,642.4844 C762.7218,645.0625 764.8312,646.9531 767.7218,646.9531 C768.9405,646.9531 770.0968,646.6563 770.8468,646.1094 C771.4249,645.7031 771.753,645.25 771.753,644.8594 C771.753,644.4063 771.3624,644.0156 770.8937,644.0156 C770.6749,644.0156 770.4718,644.0938 770.2843,644.2813 C769.8312,644.7656 769.8312,644.7656 769.6437,644.8594 C769.2218,645.125 768.5343,645.25 767.7687,645.25 C765.7218,645.25 764.4249,644.1563 764.4249,642.4531 L764.4249,641.3594 C764.4249,639.5781 765.6749,638.2656 767.4093,638.2656 C767.9874,638.2656 768.5968,638.4219 769.0655,638.6719 C769.5499,638.9531 769.7218,639.1719 769.8155,639.5781 C769.878,639.9844 769.9093,640.1094 770.0499,640.2344 C770.1905,640.375 770.4249,640.4844 770.6437,640.4844 C770.9093,640.4844 771.1749,640.3438 771.3468,640.125 C771.4562,639.9688 771.4874,639.7813 771.4874,639.3594 L771.4874,637.9375 C771.4874,637.5 771.4718,637.375 771.378,637.2188 C771.2218,636.9531 770.9405,636.8125 770.6437,636.8125 C770.3468,636.8125 770.1437,636.9063 769.9249,637.2188 L769.753,637.1406 Z " fill="#000000"/><text fill="#000000" font-family="sans-serif" font-size="12" font-style="italic" lengthAdjust="spacing" textLength="74" x="780.3093" y="638.6387">«DataSette»</text><text fill="#000000" font-family="sans-serif" font-size="12" lengthAdjust="spacing" textLength="64" x="785.3093" y="652.6074">datassette</text><line style="stroke:#A80036;stroke-width:1.5;" x1="749.3593" x2="858.3593" y1="660.4375" y2="660.4375"/><text fill="#000000" font-family="sans-serif" font-size="11" lengthAdjust="spacing" textLength="86" x="754.3593" y="674.6479">Pin cia_flag_pin</text><text fill="#000000" font-family="sans-serif" font-size="11" lengthAdjust="spacing" textLength="99" x="754.3593" y="687.4526">IoPort cpu_io_port</text><line style="stroke:#A80036;stroke-width:1.5;" x1="749.3593" x2="858.3593" y1="694.0469" y2="694.0469"/><!--MD5=[026a512c2b2225517f553e4985521a10]
link cpu to cia_1--><path codeLine="19" d="M625.0133,303.717 C667.3073,307.436 651.3993,358.373 665.8593,403 C674.2023,428.75 663.4983,518.279 685.9183,529.37 " fill="none" id="cpu-cia_1" style="stroke:#A80036;stroke-width:1.0;"/><polygon fill="#A80036" points="690.8593,530.5,682.9787,524.5927,685.9853,529.3844,681.1937,532.391,690.8593,530.5" style="stroke:#A80036;stroke-width:1.0;"/><polygon fill="#A80036" points="619.8593,303.5,628.6833,307.8745,624.8549,303.71,629.0193,299.8815,619.8593,303.5" style="stroke:#A80036;stroke-width:1.0;"/><!--MD5=[7a26adea6b7f2126c5acce84ba0a93a1]
link cpu to cia_2--><path codeLine="28" d="M495.7783,316.67 C476.1633,325.662 461.0213,383.955 453.8593,403 C445.8303,424.35 452.3863,498.545 434.0743,510.008 " fill="none" id="cpu-cia_2" style="stroke:#A80036;stroke-width:1.0;"/><polygon fill="#A80036" points="428.8593,511.5,438.6125,512.8694,433.6663,510.1243,436.4114,505.1782,428.8593,511.5" style="stroke:#A80036;stroke-width:1.0;"/><polygon fill="#A80036" points="500.8593,315.5,491.1908,313.6237,495.987,316.623,492.9877,321.4193,500.8593,315.5" style="stroke:#A80036;stroke-width:1.0;"/><!--MD5=[535672a2e3db1b051ee59732fada4ac1]
link cpu to vic--><path codeLine="46" d="M496.4103,305.903 C476.0203,327.669 459.1343,490.488 474.5213,514.536 " fill="none" id="cpu-vic" style="stroke:#A80036;stroke-width:1.0;"/><polygon fill="#A80036" points="478.8593,517.5,473.6856,509.1195,474.7312,514.6789,469.1718,515.7245,478.8593,517.5" style="stroke:#A80036;stroke-width:1.0;"/><polygon fill="#A80036" points="500.8593,303.5,491.0396,304.2576,496.46,305.8761,494.8414,311.2965,500.8593,303.5" style="stroke:#A80036;stroke-width:1.0;"/><!--MD5=[535672a2e3db1b051ee59732fada4ac1]
link cpu to vic--><path codeLine="47" d="M496.4103,293.903 C476.0203,315.669 459.1343,478.488 474.5213,502.536 " fill="none" id="cpu-vic-1" style="stroke:#A80036;stroke-width:1.0;"/><polygon fill="#A80036" points="478.8593,505.5,473.6856,497.1195,474.7312,502.6789,469.1718,503.7245,478.8593,505.5" style="stroke:#A80036;stroke-width:1.0;"/><polygon fill="#A80036" points="500.8593,291.5,491.0396,292.2576,496.46,293.8761,494.8414,299.2965,500.8593,291.5" style="stroke:#A80036;stroke-width:1.0;"/><!--MD5=[3d09a7ca86ae0d3517e7cd50edda6642]
link vic to vic_memory--><path codeLine="55" d="M641.8593,529.5 C676.7703,529.5 656.9183,571.148 633.0363,607.388 " fill="none" id="vic-to-vic_memory" style="stroke:#A80036;stroke-width:1.0;"/><polygon fill="#A80036" points="630.1063,611.777,638.4297,606.512,632.8821,607.6183,631.7758,602.0707,630.1063,611.777" style="stroke:#A80036;stroke-width:1.0;"/><!--MD5=[69bf49a4fdddbee987bcb9ace25ca524]
link memory to ram--><path codeLine="67" d="M450.8593,80.5 C502.1333,80.5 890.4543,353.824 915.8593,403 C978.8023,524.84 955.5393,592.479 884.8593,710 C868.6463,736.9563 840.7483,759.0797 817.6413,774.1347 " fill="none" id="memory-to-ram" style="stroke:#A80036;stroke-width:1.0;"/><polygon fill="#A80036" points="813.3873,776.8631,823.1227,775.3728,817.5965,774.1644,818.8048,768.6381,813.3873,776.8631" style="stroke:#A80036;stroke-width:1.0;"/><!--MD5=[266f12c602d5cbf51b87a68139eb9bc7]
link memory to mmio--><path codeLine="78" d="M450.8593,128.5 C488.7303,128.5 467.4963,167.692 438.0983,205.602 " fill="none" id="memory-to-mmio" style="stroke:#A80036;stroke-width:1.0;"/><polygon fill="#A80036" points="434.8543,209.739,443.5541,205.1224,437.9384,205.8035,437.2573,200.1878,434.8543,209.739" style="stroke:#A80036;stroke-width:1.0;"/><!--MD5=[f34d99589b5144ceaebd9710f0489b3a]
link mmio to cia_1--><path codeLine="79" d="M450.8593,261.5 C488.7473,261.5 449.1783,316.099 475.8593,343 C538.2183,405.875 587.2973,362.134 665.8593,403 C670.3283,405.325 674.8033,407.86 679.2433,410.545 " fill="none" id="mmio-to-cia_1" style="stroke:#A80036;stroke-width:1.0;"/><polygon fill="#A80036" points="683.6713,413.278,678.1122,405.148,679.416,410.6526,673.9115,411.9564,683.6713,413.278" style="stroke:#A80036;stroke-width:1.0;"/><!--MD5=[52daef3aa352b6f2329e4bdfd6200365]
link mmio to cia_2--><path codeLine="80" d="M450.8593,273.5 C481.7513,273.5 457.7223,313.126 449.8593,343 C443.1133,368.625 430.4453,394.666 417.5323,416.863 " fill="none" id="mmio-to-cia_2" style="stroke:#A80036;stroke-width:1.0;"/><polygon fill="#A80036" points="414.9483,421.249,422.9633,415.5254,417.4864,416.9411,416.0707,411.4643,414.9483,421.249" style="stroke:#A80036;stroke-width:1.0;"/><!--MD5=[904579598f6e252515522109acc05186]
link mmio to sid--><path codeLine="81" d="M300.8593,309.5 C232.9863,309.5 182.0383,377.672 154.0953,426.904 " fill="none" id="mmio-to-sid" style="stroke:#A80036;stroke-width:1.0;"/><polygon fill="#A80036" points="151.6283,431.307,159.5169,425.4104,154.0721,426.9449,152.5375,421.5002,151.6283,431.307" style="stroke:#A80036;stroke-width:1.0;"/><!--MD5=[a4e820e02d4a50730297f6c274523a74]
link mmio to vic--><path codeLine="82" d="M450.8593,321.5 C461.4523,321.5 488.9803,360.74 513.7193,399.733 " fill="none" id="mmio-to-vic" style="stroke:#A80036;stroke-width:1.0;"/><polygon fill="#A80036" points="516.4113,403.992,514.9807,394.2476,513.7385,399.7664,508.2197,398.5241,516.4113,403.992" style="stroke:#A80036;stroke-width:1.0;"/><!--MD5=[06915424f6da2ea5ad82e18b14406795]
link vic to color_ram--><path codeLine="86" d="M478.8593,468.5 C439.9903,468.5 471.0543,517.653 452.8593,552 C437.6483,580.712 414.4313,609.3 395.9533,629.845 " fill="none" id="vic-to-color_ram" style="stroke:#A80036;stroke-width:1.0;"/><polygon fill="#A80036" points="392.5603,633.585,401.5688,629.6043,395.9187,629.8808,395.6422,624.2308,392.5603,633.585" style="stroke:#A80036;stroke-width:1.0;"/><!--MD5=[822670a00c1860488f7c52b27f3cedf3]
link mmio to color_ram--><path codeLine="87" d="M300.8593,285.5 C291.8293,285.5 290.8143,520.262 299.8593,552 C308.0233,580.647 326.2083,609.114 341.5763,629.625 " fill="none" id="mmio-to-color_ram" style="stroke:#A80036;stroke-width:1.0;"/><polygon fill="#A80036" points="344.6083,633.619,342.3535,624.0317,341.5855,629.6362,335.981,628.8682,344.6083,633.619" style="stroke:#A80036;stroke-width:1.0;"/><!--MD5=[470c161176d29726c385c08da504b9b5]
link vic_memory to ram--><path codeLine="91" d="M663.8593,663 C690.6983,663 734.9283,725.7573 759.9933,765.0534 " fill="none" id="vic_memory-to-ram" style="stroke:#A80036;stroke-width:1.0;"/><polygon fill="#A80036" points="762.9523,769.7235,761.5148,759.9801,760.2765,765.4997,754.7568,764.2614,762.9523,769.7235" style="stroke:#A80036;stroke-width:1.0;"/><!--MD5=[bea90c4d8526b4d8ab1bcf8b7a54ea51]
link vic to rom_charset--><path codeLine="95" d="M471.1243,542.265 C465.0523,545.747 458.9333,549.03 452.8593,552 C358.8573,597.958 240.8483,630.293 171.4593,646.97 " fill="none" id="vic-to-rom_charset" style="stroke:#A80036;stroke-width:1.0;"/><polygon fill="#A80036" points="166.5483,648.144,176.2313,649.9438,171.4115,646.9825,174.3729,642.1627,166.5483,648.144" style="stroke:#A80036;stroke-width:1.0;"/><!--MD5=[84e5646e0d29061c605f0677a475d7c6]
link memory to rom_charset--><path codeLine="96" d="M300.8593,104.5 C121.6733,104.5 94.4167,235.849 29.8589,403 C6,464.775 8.549,489.3 29.8589,552 C39.9892,581.806 62.0285,609.818 80.8515,629.842 " fill="none" id="memory-to-rom_charset" style="stroke:#A80036;stroke-width:1.0;"/><polygon fill="#A80036" points="84.5688,633.738,81.2504,624.465,81.1174,630.1203,75.4621,629.9873,84.5688,633.738" style="stroke:#A80036;stroke-width:1.0;"/><!--MD5=[13de36dde0ecf34b9db0f25b9f4f1676]
link cia_1 to datassette--><path codeLine="103" d="M837.7853,519.621 C845.2053,524.038 837.5713,540.544 831.8593,552 C810.7653,594.301 769.7323,576.09 748.8593,618.5 C739.6183,637.275 727.3073,664.756 742.7433,669.34 " fill="none" id="cia_1-datassette" style="stroke:#A80036;stroke-width:1.0;"/><polygon fill="#A80036" points="747.8593,670,739.4454,664.8808,742.9004,669.36,738.4213,672.815,747.8593,670" style="stroke:#A80036;stroke-width:1.0;"/><polygon fill="#A80036" points="832.8593,518.5,840.7465,524.3985,837.7345,519.6102,842.5228,516.5982,832.8593,518.5" style="stroke:#A80036;stroke-width:1.0;"/><!--MD5=[96d969f83f230c889b0bc531c7c2090d]
link cpu to datassette--><path codeLine="104" d="M625.0553,279.514 C740.6833,280.161 796.3373,302.981 857.8593,403 C921.8773,507.078 983.0483,676.935 866.1893,681.889 " fill="none" id="cpu-datassette" style="stroke:#A80036;stroke-width:1.0;"/><polygon fill="#A80036" points="860.8593,682,869.9407,685.8115,865.8582,681.8957,869.7739,677.8132,860.8593,682" style="stroke:#A80036;stroke-width:1.0;"/><polygon fill="#A80036" points="619.8593,279.5,628.849,283.5231,624.8593,279.5129,628.8695,275.5232,619.8593,279.5" style="stroke:#A80036;stroke-width:1.0;"/><!--MD5=[e0b871d473d7c81df3da5559449957e6]
@startuml
class cpu << Cpu6510 >> {
  Addressable mem
  IoPort io_port
  Pin ba_line
  IrqLine irq_line
  IrqLine nmi_line
}

class cia_1 << Cia >> {
  u8 joystick_1
  u8 joystick_2
  [u8; 16] keyboard_mtx
  IoPort port_a
  IoPort port_b
  Pin flag_pin
  IrqLine irq_line
}

cpu::irq_line <- -> cia_1::irq_line

class cia_2 << Cia >> {
  IoPort port_a
  IoPort port_b
  Pin flag_pin
  IrqLine nmi_line  
}

cpu::nmi_line <- -> cia_2::nmi_line

class sid << Sid >> {
  SidModel chip_model
  Clock system_clock
  SoundOutput sound_buffer  
}

class vic << Vic >> {
  VicModel chip_model
  Ram color_ram
  VideoOutput frame_buffer
  bool vsync_flag
  Pin ba_line
  IrqLine irq_line  
  VicMemory vic_memory
}

cpu::irq_line <- -> vic::irq_line
cpu::ba_line <- -> vic::ba_line

class vic_memory << VicMemory >> {
  Ram ram
  Rom rom_charset
  u16 vic_base_address
}

vic::vic_memory - -> vic_memory

class memory << Memory >> {
  Mmu mmu
  AddresbFaded exp_port
  Ram ram
  Rom rom_basic
  Rom rom_charset
  Rom rom_kernal
  Mmio mmio
}

memory::ram - -> ram

class mmio << Mmio >> {
  Chip cia_1
  Chip cia_2
  Ram color_ram
  AddresbFaded exp_port
  Chip sid
  Chip vic
}

memory::mmio - -> mmio
mmio::cia_1 - -> cia_1
mmio::cia_2 - -> cia_2
mmio::sid   - -> sid
mmio::vic   - -> vic

class color_ram << Ram >>

vic::color_ram - -> color_ram
mmio::color_ram - -> color_ram

class ram << Ram >>

vic_memory::ram - -> ram

class rom_charset << Rom >>

vic::rom_charset - -> rom_charset
memory::rom_charset - -> rom_charset

class datassette << DataSette >> {
  Pin cia_flag_pin
  IoPort cpu_io_port
}

cia_1::flag_pin <- -> datassette::cia_flag_pin
cpu::io_port <- -> datassette::io_port
@enduml

PlantUML version 1.2022.1beta3(Unknown compile time)
(GPL source distribution)
Java Runtime: Java(TM) SE Runtime Environment
JVM: Java HotSpot(TM) 64-Bit Server VM
Default Encoding: UTF-8
Language: en
Country: US
--></g></svg>